# xmcd CD database file
#
# Track frame offsets:
#	150
#	27390
#	61675
#	109601
#	150672
#	172600
#	199709
#	223478
#	248736
#	282664
#	310013
#	340202
#
# Disc length: 4798 seconds
#
# Revision: 4
# Processed by: cddbd v1.5.2PL0 Copyright (c) Steve Scherf et al.
# Submitted via: CDex 1.70beta3
#
DISCID=a512bc0c
DTITLE=Jazztronik - Jazztronik Works (Disc1 Remix Side)
DYEAR=2009
DGENRE=Club
TTITLE0=m-flo - orbit-3 (Jazztronik G-Street Mix) Edit ver.
TTITLE1=中島美嘉 - 愛してる (Jazztronik Mix)
TTITLE2=Mondo Grosso - SAMBA DO GATO (Hybrid Beats Remix)
TTITLE3=Sunaga t Exprerience - NO REASON NO RHYME (Jazztronik Mix)
TTITLE4=青山テルマ - このままで (Jazztronik Remix)
TTITLE5=Monday Michiru - Sands of Time (Jazztronik Remix) Edit ver.
TTITLE6=深田恭子 - キミノヒトミニコイシテル (Jazztronik Remix)
TTITLE7=上戸彩 - ウソツキ (Jazztronik Remix)
TTITLE8=atami - Under The Sun (Jazztronik Remix)
TTITLE9=Rhymescientist - Roadster (Jazztronik Remix)
TTITLE10=Little Big Bee - K.G.O (Jazztronik Remix) Edit ver.
TTITLE11=松平健 - マツケンサンバII (Jazztronik Mix)
EXTD=YEAR: 2009
EXTT0=
EXTT1=
EXTT2=
EXTT3=
EXTT4=
EXTT5=
EXTT6=
EXTT7=
EXTT8=
EXTT9=
EXTT10=
EXTT11=
PLAYORDER=
